<?xml version="1.0" encoding="utf-8"?>
<!-- Generator: Adobe Illustrator 24.1.2, SVG Export Plug-In . SVG Version: 6.00 Build 0)  -->
<svg version="1.1" id="Layer_1" xmlns="http://www.w3.org/2000/svg" xmlns:xlink="http://www.w3.org/1999/xlink" x="0px" y="0px"
	 viewBox="0 0 566.9 566.9" style="enable-background:new 0 0 566.9 566.9;" xml:space="preserve">
<g>
	<rect style="fill:#113559;" width="283.5" height="283.5"/>
	<rect x="283.5" style="fill:#21A5DE;" width="283.5" height="283.5"/>
	<rect y="283.5" style="fill:#ED1845;" width="283.5" height="283.5"/>
	<rect x="283.5" y="283.5" style="fill:#FFFFFF;" width="283.5" height="283.5"/>
</g>
<path style="fill:#FFFFFF;" d="M121.6,410.7c1.5,1.5,3.2,3.3,4.9,5.2c0.1-0.1,0.2-0.2,0.3-0.2c2.7-1.3,7.5-9.6,11-15.6
	c2.5-4.7,5.5-9.3,8.8-13.5V385c0-1-0.5-1.8-1.4-2.3l-5.6-2.8c-1-0.5-2.2-0.3-2.9,0.5l0,0c-5.7,8-14.6,22.7-14.6,28.7
	C122.1,409.7,121.9,410.2,121.6,410.7z"/>
<path style="fill:#FFFFFF;" d="M116.6,395c0.9,3,1,6.2,0.3,9.2c2.8-9.6,11.8-22.9,14.4-26.6v-1.5c0-1.3-0.6-2.5-1.7-3.2l-3.1-2
	C128,378.1,127,387.1,116.6,395z"/>
<path style="fill:#FFFFFF;" d="M198.1,418.3c-6.9-1.1-13.9-1-20.7,0.3l-0.2,0.7c-0.1,0.1-0.1,0.2-0.2,0.4c0,0.1-0.1,0.2-0.1,0.3
	c0,0-0.1,0.1-0.1,0.1c-0.2,0.3-0.4,0.5-0.7,0.7c-5.1,4.1-9.8,8.6-14,13.5c-0.3,0.3-0.6,0.7-0.9,1c0,0,0.1,0,0.1,0.1
	c1.3,0.4,2.6,0.9,3.9,1.5l0.5,0.2c1.3,0.6,2.7,1.2,4.1,1.9l0.4,0.2c9,4.9,17.7,10.3,26.1,16.2c2.9,2.1,5.9,4,9,5.8h5.9
	c1.4-10,8-30.9,10.9-40C214,420.9,206,419.9,198.1,418.3z"/>
<path style="fill:#FFFFFF;" d="M85,387.7l0.6,0.4c0.4,0.3,0.8,0.6,1.2,0.8c0.7,0.5,1.5,1,2.2,1.6l0.2,0.1l0.1-0.2
	c-0.3-0.4-0.6-0.9-0.9-1.3c-5.6-8.1-11.6-17-16.5-25.2c-4-1.8-7.7-3.5-10.5-4.8c0.6,3.1,1.3,6.2,2.3,9.2c0.6,1.8,3.6,5.3,9.8,10.5
	C77.2,381.9,81.3,385,85,387.7z"/>
<path style="fill:#FFFFFF;" d="M130.8,420.3c2.5,2.7,5,5.5,7.5,8.4c2-7,7.7-16.9,17.9-27.3l0.3-1c1-2.9-0.4-6.1-3.1-7.5l-3-1.5
	c-2.7,3.7-5.1,7.6-7.3,11.6C137.9,412,134.3,417.8,130.8,420.3z"/>
<path style="fill:#FFFFFF;" d="M143.3,434.7c1.4,1.7,2.7,3.3,3.9,4.9c1.7-0.9,3.3-2,4.6-3.4c0.1-0.1,0.2-0.2,0.3-0.3
	c0.4-0.4,0.8-0.8,1.2-1.2l0.2-0.2c0.5-0.5,1-1,1.5-1.6l0.3-0.4c0.7-0.8,1.4-1.5,2.2-2.4c1-1.1,2-2.2,3-3.3c0.3-0.3,0.6-0.7,0.9-1
	c0.8-0.8,1.5-1.6,2.3-2.4l0.5-0.5c0.3-0.3,0.6-0.6,0.9-0.9c0.7-0.7,1.4-1.3,2-2c0.2-0.2,0.5-0.4,0.7-0.7c0.4-0.3,0.7-0.6,1.1-0.9
	c0.4-0.4,0.8-0.7,1.3-1.1l-2.4-4.9c-1.3-2.5-3.5-4.5-6.2-5.4l-1.9-0.6c-10.5,10.9-16.2,22-16.2,27.1
	C143.5,434,143.5,434.4,143.3,434.7z"/>
<path style="fill:#FFFFFF;" d="M78,362.2c0.6,1,1.2,2,1.8,3c0.5,0.8,0.9,1.5,1.4,2.3c0.5,0.8,1,1.6,1.5,2.4c1,1.5,2,3.1,3,4.5
	l1.4,2.1c0.6,0.9,1.2,1.8,1.8,2.7c1,1.4,2,2.9,3,4.4c0.2,0.2,0.3,0.5,0.5,0.7c3.3-4.7,7.5-8.6,12.5-11.4l0.1,0l0.4-0.2
	c0.4-0.2,0.9-0.5,1.3-0.8c0.1-0.1,0.3-0.2,0.4-0.3c0.3-0.3,0.6-0.5,0.9-0.8c0.2-0.2,0.4-0.4,0.6-0.6c0.3-0.3,0.5-0.6,0.8-0.8
	c0.3-0.3,0.6-0.6,0.9-1l0.2-0.3c-1.5-9.3-2.7-21.5-3.3-27.9c-19.4,8-31.7,6.8-38.6,4.5c2.4,5.5,5.3,10.9,8.5,16
	C77.4,361.2,77.7,361.7,78,362.2z"/>
<path style="fill:#FFFFFF;" d="M192.9,460.6c-5.2-3.5-12.1-8.2-19.1-12.3l-0.1,0c-0.8-0.5-1.6-0.9-2.4-1.4l-0.4-0.2
	c-0.7-0.4-1.4-0.8-2.1-1.1l-0.6-0.3c-0.6-0.3-1.2-0.6-1.8-0.9l-0.8-0.4c-0.5-0.3-1.1-0.5-1.6-0.8c-0.3-0.1-0.6-0.3-0.9-0.4
	c-0.5-0.2-1-0.4-1.4-0.6c-0.3-0.1-0.6-0.3-0.9-0.4c-0.4-0.2-0.9-0.3-1.3-0.5c-0.3-0.1-0.6-0.2-0.9-0.3c-0.4-0.1-0.8-0.2-1.2-0.4
	c-0.3-0.1-0.6-0.2-0.9-0.3c-0.1,0-0.2,0-0.3-0.1c-1.2,1.2-2.4,2.3-3.8,3.3l26.1,41.8c7.8-1.9,22.8-6.5,28.4-12l-4.6-6.6
	C199.1,464.8,196,462.8,192.9,460.6z"/>
<path style="fill:#FFFFFF;" d="M146.6,447.1c-1,0-1.9-0.5-2.5-1.3c-9.5-13.6-33.1-37.3-33.3-37.5c-0.9-0.9-1.2-2.4-0.6-3.5
	c1.3-3,1.3-6.5,0-9.5c-0.7-1.4-0.2-3.1,1-3.9c11.9-7.9,10.9-16.6,7.6-24.5c-1.3,2.2-2.9,4.2-4.5,6.2c-0.2,0.2-0.4,0.4-0.6,0.6
	c-0.4,0.4-0.8,0.8-1.1,1.2c-0.3,0.3-0.6,0.6-0.8,0.8c-0.3,0.3-0.7,0.6-1,0.8c-0.3,0.2-0.6,0.5-0.8,0.7c-0.5,0.4-1.1,0.7-1.7,1
	c-0.1,0-0.1,0.1-0.1,0.1c-4.4,2.4-8.2,5.9-10.9,10.1l0,0.1c-0.3,0.4-0.6,0.9-0.8,1.4l0,0.1c-0.3,0.5-0.5,1-0.7,1.5l0,0.1
	c-0.2,0.5-0.4,1-0.6,1.5c-0.2,0.5-0.4,1.1-0.5,1.7c-0.1,0.3-0.2,0.5-0.3,0.8c-0.1,0.1-0.1,0.2-0.2,0.2c-0.1,0.1-0.2,0.3-0.3,0.4
	c-0.3,0.3-0.6,0.7-0.8,1c-1.6,2.3-2.8,4.8-3.4,7.5c-0.7,2.5-1,5.1-1,7.7c0.2,3.6,1.2,7.1,3.1,10.1c8.1,15,7.6,33.1-1.1,47.7
	L69,505.6c-0.6,0.9-0.6,2.1,0,3.1c0.6,1,1.6,1.5,2.7,1.5h46.7c1.2,0,2.2-0.7,2.7-1.7l8.2-16.4c1.4-2.7,2.6-5.5,3.5-8.4
	c1.1-3.4,2.5-6.7,4.1-9.9l0.9-1.8c0.2-0.4,0.5-0.7,0.8-1l15.9-12.9l-7-11.3C147.2,447,146.9,447.1,146.6,447.1z M129.6,470.1
	c-0.7,0.4-1.6,0.4-2.3,0.2c-0.8-0.3-1.4-0.8-1.8-1.5c-5.4-10.7-19.2-13.7-19.3-13.7c-1.6-0.4-2.6-2-2.3-3.6c0.3-1.6,1.9-2.7,3.5-2.4
	c0.7,0.1,16.9,3.5,23.6,16.9c0.4,0.7,0.4,1.6,0.2,2.3C130.9,469.1,130.3,469.7,129.6,470.1z"/>
<path style="fill:#FFFFFF;" d="M116.5,405.4L116.5,405.4L116.5,405.4L116.5,405.4z"/>
<path style="fill:#FFFFFF;" d="M78.8,400c1.7,0.1,3.5,0.3,5.4,0.6c0.1-0.3,0.2-0.6,0.4-0.9c0.2-0.4,0.3-0.8,0.5-1.2
	c0.2-0.4,0.4-0.8,0.6-1.2c0.2-0.3,0.3-0.7,0.5-1c0.1-0.1,0.1-0.2,0.1-0.3l-0.2-0.2c-3.3-2.3-6.4-4.5-9.2-6.6
	C77.8,393.6,78.5,397.6,78.8,400z"/>
<path style="fill:#FFFFFF;" d="M121.6,127.2c1.5,1.5,3.2,3.3,4.9,5.2c0.1-0.1,0.2-0.2,0.3-0.2c2.7-1.3,7.5-9.6,11-15.6
	c2.5-4.7,5.5-9.3,8.8-13.5v-1.5c0-1-0.5-1.8-1.4-2.3l-5.6-2.8c-1-0.5-2.2-0.3-2.9,0.5l0,0c-5.7,8-14.6,22.7-14.6,28.7
	C122.1,126.2,121.9,126.7,121.6,127.2z"/>
<path style="fill:#FFFFFF;" d="M116.6,111.5c0.9,3,1,6.2,0.3,9.2c2.8-9.6,11.8-22.9,14.4-26.6v-1.5c0-1.3-0.6-2.5-1.7-3.2l-3.1-2
	C128,94.7,127,103.7,116.6,111.5z"/>
<path style="fill:#FFFFFF;" d="M198.1,134.8c-6.9-1.1-13.9-1-20.7,0.3l-0.2,0.7c-0.1,0.1-0.1,0.2-0.2,0.4c0,0.1-0.1,0.2-0.1,0.3
	c0,0-0.1,0.1-0.1,0.1c-0.2,0.3-0.4,0.5-0.7,0.7c-5.1,4.1-9.8,8.6-14,13.5c-0.3,0.3-0.6,0.7-0.9,1c0,0,0.1,0,0.1,0.1
	c1.3,0.4,2.6,0.9,3.9,1.5l0.5,0.2c1.3,0.6,2.7,1.2,4.1,1.9l0.4,0.2c9,4.9,17.7,10.3,26.1,16.2c2.9,2.1,5.9,4,9,5.8h5.9
	c1.4-10,8-30.9,10.9-40C214,137.4,206,136.4,198.1,134.8z"/>
<path style="fill:#FFFFFF;" d="M85,104.3l0.6,0.4c0.4,0.3,0.8,0.6,1.2,0.8c0.7,0.5,1.5,1,2.2,1.6l0.2,0.1l0.1-0.2
	c-0.3-0.4-0.6-0.9-0.9-1.3c-5.6-8.1-11.6-17-16.5-25.2c-4-1.8-7.7-3.5-10.5-4.8c0.6,3.1,1.3,6.2,2.3,9.2c0.6,1.8,3.6,5.3,9.8,10.5
	C77.2,98.5,81.3,101.5,85,104.3z"/>
<path style="fill:#FFFFFF;" d="M130.8,136.9c2.5,2.7,5,5.5,7.5,8.4c2-7,7.7-16.9,17.9-27.3l0.3-1c1-2.9-0.4-6.1-3.1-7.5l-3-1.5
	c-2.7,3.7-5.1,7.6-7.3,11.6C137.9,128.5,134.3,134.3,130.8,136.9z"/>
<path style="fill:#FFFFFF;" d="M143.3,151.2c1.4,1.7,2.7,3.3,3.9,4.9c1.7-0.9,3.3-2,4.6-3.4c0.1-0.1,0.2-0.2,0.3-0.3
	c0.4-0.4,0.8-0.8,1.2-1.2l0.2-0.2c0.5-0.5,1-1,1.5-1.6l0.3-0.4c0.7-0.8,1.4-1.5,2.2-2.4c1-1.1,2-2.2,3-3.3c0.3-0.3,0.6-0.7,0.9-1
	c0.8-0.8,1.5-1.6,2.3-2.4l0.5-0.5c0.3-0.3,0.6-0.6,0.9-0.9c0.7-0.7,1.4-1.3,2-2c0.2-0.2,0.5-0.4,0.7-0.7c0.4-0.3,0.7-0.6,1.1-0.9
	c0.4-0.4,0.8-0.7,1.3-1.1l-2.4-4.9c-1.3-2.5-3.5-4.5-6.2-5.4l-1.9-0.6c-10.5,10.9-16.2,22-16.2,27.1
	C143.5,150.5,143.5,150.9,143.3,151.2z"/>
<path style="fill:#FFFFFF;" d="M78,78.8c0.6,1,1.2,2,1.8,3c0.5,0.8,0.9,1.5,1.4,2.3c0.5,0.8,1,1.6,1.5,2.4c1,1.5,2,3.1,3,4.5
	l1.4,2.1c0.6,0.9,1.2,1.8,1.8,2.7c1,1.4,2,2.9,3,4.4c0.2,0.2,0.3,0.5,0.5,0.7c3.3-4.7,7.5-8.6,12.5-11.4l0.1,0l0.4-0.2
	c0.4-0.2,0.9-0.5,1.3-0.8c0.1-0.1,0.3-0.2,0.4-0.3c0.3-0.3,0.6-0.5,0.9-0.8c0.2-0.2,0.4-0.4,0.6-0.6c0.3-0.3,0.5-0.6,0.8-0.8
	c0.3-0.3,0.6-0.6,0.9-1l0.2-0.3c-1.5-9.3-2.7-21.5-3.3-27.9c-19.4,8-31.7,6.8-38.6,4.5c2.4,5.5,5.3,10.9,8.5,16
	C77.4,77.7,77.7,78.2,78,78.8z"/>
<path style="fill:#FFFFFF;" d="M192.9,177.1c-5.2-3.5-12.1-8.2-19.1-12.3l-0.1,0c-0.8-0.5-1.6-0.9-2.4-1.4l-0.4-0.2
	c-0.7-0.4-1.4-0.8-2.1-1.1l-0.6-0.3c-0.6-0.3-1.2-0.6-1.8-0.9l-0.8-0.4c-0.5-0.3-1.1-0.5-1.6-0.8c-0.3-0.1-0.6-0.3-0.9-0.4
	c-0.5-0.2-1-0.4-1.4-0.6c-0.3-0.1-0.6-0.3-0.9-0.4c-0.4-0.2-0.9-0.3-1.3-0.5c-0.3-0.1-0.6-0.2-0.9-0.3c-0.4-0.1-0.8-0.2-1.2-0.4
	c-0.3-0.1-0.6-0.2-0.9-0.3c-0.1,0-0.2,0-0.3-0.1c-1.2,1.2-2.4,2.3-3.8,3.3l26.1,41.8c7.8-1.9,22.8-6.5,28.4-12l-4.6-6.6
	C199.1,181.4,196,179.3,192.9,177.1z"/>
<path style="fill:#FFFFFF;" d="M146.6,163.6c-1,0-1.9-0.5-2.5-1.3c-9.5-13.6-33.1-37.3-33.3-37.5c-0.9-0.9-1.2-2.4-0.6-3.5
	c1.3-3,1.3-6.5,0-9.5c-0.7-1.4-0.2-3.1,1-3.9c11.9-7.9,10.9-16.6,7.6-24.5c-1.3,2.2-2.9,4.2-4.5,6.2c-0.2,0.2-0.4,0.4-0.6,0.6
	c-0.4,0.4-0.8,0.8-1.1,1.2c-0.3,0.3-0.6,0.6-0.8,0.8c-0.3,0.3-0.7,0.6-1,0.8c-0.3,0.2-0.6,0.5-0.8,0.7c-0.5,0.4-1.1,0.7-1.7,1
	c-0.1,0-0.1,0.1-0.1,0.1c-4.4,2.4-8.2,5.9-10.9,10.1l0,0.1c-0.3,0.4-0.6,0.9-0.8,1.4l0,0.1c-0.3,0.5-0.5,1-0.7,1.5l0,0.1
	c-0.2,0.5-0.4,1-0.6,1.5c-0.2,0.5-0.4,1.1-0.5,1.7c-0.1,0.3-0.2,0.5-0.3,0.8c-0.1,0.1-0.1,0.2-0.2,0.2c-0.1,0.1-0.2,0.3-0.3,0.4
	c-0.3,0.3-0.6,0.7-0.8,1c-1.6,2.3-2.8,4.8-3.4,7.5c-0.7,2.5-1,5.1-1,7.7c0.2,3.6,1.2,7.1,3.1,10.1c8.1,15,7.6,33.1-1.1,47.7
	L69,222.1c-0.6,0.9-0.6,2.1,0,3.1c0.6,1,1.6,1.5,2.7,1.5h46.7c1.2,0,2.2-0.7,2.7-1.7l8.2-16.4c1.4-2.7,2.6-5.5,3.5-8.4
	c1.1-3.4,2.5-6.7,4.1-9.9l0.9-1.8c0.2-0.4,0.5-0.7,0.8-1l15.9-12.9l-7-11.3C147.2,163.6,146.9,163.6,146.6,163.6z M129.6,186.6
	c-0.7,0.4-1.6,0.4-2.3,0.2c-0.8-0.3-1.4-0.8-1.8-1.5c-5.4-10.7-19.2-13.7-19.3-13.7c-1.6-0.4-2.6-2-2.3-3.6c0.3-1.6,1.9-2.7,3.5-2.4
	c0.7,0.1,16.9,3.5,23.6,16.9c0.4,0.7,0.4,1.6,0.2,2.3C130.9,185.6,130.3,186.3,129.6,186.6z"/>
<path style="fill:#FFFFFF;" d="M116.5,121.9L116.5,121.9L116.5,121.9L116.5,121.9z"/>
<path style="fill:#FFFFFF;" d="M78.8,116.6c1.7,0.1,3.5,0.3,5.4,0.6c0.1-0.3,0.2-0.6,0.4-0.9c0.2-0.4,0.3-0.8,0.5-1.2
	c0.2-0.4,0.4-0.8,0.6-1.2c0.2-0.3,0.3-0.7,0.5-1c0.1-0.1,0.1-0.2,0.1-0.3l-0.2-0.2c-3.3-2.3-6.4-4.5-9.2-6.6
	C77.8,110.1,78.5,114.1,78.8,116.6z"/>
<path style="fill:#FFFFFF;" d="M405.1,127.2c1.5,1.5,3.2,3.3,4.9,5.2c0.1-0.1,0.2-0.2,0.3-0.2c2.7-1.3,7.5-9.6,11-15.6
	c2.5-4.7,5.5-9.3,8.8-13.5v-1.5c0-1-0.5-1.8-1.4-2.3l-5.6-2.8c-1-0.5-2.2-0.3-2.9,0.5l0,0c-5.7,8-14.6,22.7-14.6,28.7
	C405.6,126.2,405.4,126.7,405.1,127.2z"/>
<path style="fill:#FFFFFF;" d="M400,111.5c0.9,3,1,6.2,0.3,9.2c2.8-9.6,11.8-22.9,14.4-26.6v-1.5c0-1.3-0.6-2.5-1.7-3.2l-3.1-2
	C411.5,94.7,410.5,103.7,400,111.5z"/>
<path style="fill:#FFFFFF;" d="M481.5,134.8c-6.9-1.1-13.9-1-20.7,0.3l-0.2,0.7c-0.1,0.1-0.1,0.2-0.2,0.4c0,0.1-0.1,0.2-0.1,0.3
	c0,0-0.1,0.1-0.1,0.1c-0.2,0.3-0.4,0.5-0.7,0.7c-5.1,4.1-9.8,8.6-14,13.5c-0.3,0.3-0.6,0.7-0.9,1c0,0,0.1,0,0.1,0.1
	c1.3,0.4,2.6,0.9,3.9,1.5l0.5,0.2c1.3,0.6,2.7,1.2,4.1,1.9l0.4,0.2c9,4.9,17.7,10.3,26.1,16.2c2.9,2.1,5.9,4,9,5.8h5.9
	c1.4-10,8-30.9,10.9-40C497.5,137.4,489.4,136.4,481.5,134.8z"/>
<path style="fill:#FFFFFF;" d="M368.5,104.3l0.6,0.4c0.4,0.3,0.8,0.6,1.2,0.8c0.7,0.5,1.5,1,2.2,1.6l0.2,0.1l0.1-0.2
	c-0.3-0.4-0.6-0.9-0.9-1.3c-5.6-8.1-11.6-17-16.5-25.2c-4-1.8-7.7-3.5-10.5-4.8c0.6,3.1,1.3,6.2,2.3,9.2c0.6,1.8,3.6,5.3,9.8,10.5
	C360.6,98.5,364.7,101.5,368.5,104.3z"/>
<path style="fill:#FFFFFF;" d="M414.2,136.9c2.5,2.7,5,5.5,7.5,8.4c2-7,7.7-16.9,17.9-27.3l0.3-1c1-2.9-0.4-6.1-3.1-7.5l-3-1.5
	c-2.7,3.7-5.1,7.6-7.3,11.6C421.4,128.5,417.8,134.3,414.2,136.9z"/>
<path style="fill:#FFFFFF;" d="M426.8,151.2c1.4,1.7,2.7,3.3,3.9,4.9c1.7-0.9,3.3-2,4.6-3.4c0.1-0.1,0.2-0.2,0.3-0.3
	c0.4-0.4,0.8-0.8,1.2-1.2l0.2-0.2c0.5-0.5,1-1,1.5-1.6l0.3-0.4c0.7-0.8,1.4-1.5,2.2-2.4c1-1.1,2-2.2,3-3.3c0.3-0.3,0.6-0.7,0.9-1
	c0.8-0.8,1.5-1.6,2.3-2.4l0.5-0.5c0.3-0.3,0.6-0.6,0.9-0.9c0.7-0.7,1.4-1.3,2-2c0.2-0.2,0.5-0.4,0.7-0.7c0.4-0.3,0.7-0.6,1.1-0.9
	c0.4-0.4,0.8-0.7,1.3-1.1l-2.4-4.9c-1.3-2.5-3.5-4.5-6.2-5.4l-1.9-0.6c-10.5,10.9-16.2,22-16.2,27.1
	C427,150.5,426.9,150.9,426.8,151.2z"/>
<path style="fill:#FFFFFF;" d="M361.5,78.8c0.6,1,1.2,2,1.8,3c0.5,0.8,0.9,1.5,1.4,2.3c0.5,0.8,1,1.6,1.5,2.4c1,1.5,2,3.1,3,4.5
	l1.4,2.1c0.6,0.9,1.2,1.8,1.8,2.7c1,1.4,2,2.9,3,4.4c0.2,0.2,0.3,0.5,0.5,0.7c3.3-4.7,7.5-8.6,12.5-11.4l0.1,0l0.4-0.2
	c0.4-0.2,0.9-0.5,1.3-0.8c0.1-0.1,0.3-0.2,0.4-0.3c0.3-0.3,0.6-0.5,0.9-0.8c0.2-0.2,0.4-0.4,0.6-0.6c0.3-0.3,0.5-0.6,0.8-0.8
	c0.3-0.3,0.6-0.6,0.9-1l0.2-0.3c-1.5-9.3-2.7-21.5-3.3-27.9c-19.4,8-31.7,6.8-38.6,4.5c2.4,5.5,5.3,10.9,8.5,16
	C360.8,77.7,361.1,78.2,361.5,78.8z"/>
<path style="fill:#FFFFFF;" d="M476.4,177.1c-5.2-3.5-12.1-8.2-19.1-12.3l-0.1,0c-0.8-0.5-1.6-0.9-2.4-1.4l-0.4-0.2
	c-0.7-0.4-1.4-0.8-2.1-1.1l-0.6-0.3c-0.6-0.3-1.2-0.6-1.8-0.9l-0.8-0.4c-0.5-0.3-1.1-0.5-1.6-0.8c-0.3-0.1-0.6-0.3-0.9-0.4
	c-0.5-0.2-1-0.4-1.4-0.6c-0.3-0.1-0.6-0.3-0.9-0.4c-0.4-0.2-0.9-0.3-1.3-0.5c-0.3-0.1-0.6-0.2-0.9-0.3c-0.4-0.1-0.8-0.2-1.2-0.4
	c-0.3-0.1-0.6-0.2-0.9-0.3c-0.1,0-0.2,0-0.3-0.1c-1.2,1.2-2.4,2.3-3.8,3.3l26.1,41.8c7.8-1.9,22.8-6.5,28.4-12l-4.6-6.6
	C482.6,181.4,479.4,179.3,476.4,177.1z"/>
<path style="fill:#FFFFFF;" d="M430.1,163.6c-1,0-1.9-0.5-2.5-1.3c-9.5-13.6-33.1-37.3-33.3-37.5c-0.9-0.9-1.2-2.4-0.6-3.5
	c1.3-3,1.3-6.5,0-9.5c-0.7-1.4-0.2-3.1,1-3.9c11.9-7.9,10.9-16.6,7.6-24.5c-1.3,2.2-2.9,4.2-4.5,6.2c-0.2,0.2-0.4,0.4-0.6,0.6
	c-0.4,0.4-0.8,0.8-1.1,1.2c-0.3,0.3-0.6,0.6-0.8,0.8c-0.3,0.3-0.7,0.6-1,0.8c-0.3,0.2-0.6,0.5-0.8,0.7c-0.5,0.4-1.1,0.7-1.7,1
	c-0.1,0-0.1,0.1-0.1,0.1c-4.4,2.4-8.2,5.9-10.9,10.1l0,0.1c-0.3,0.4-0.6,0.9-0.8,1.4l0,0.1c-0.3,0.5-0.5,1-0.7,1.5l0,0.1
	c-0.2,0.5-0.4,1-0.6,1.5c-0.2,0.5-0.4,1.1-0.5,1.7c-0.1,0.3-0.2,0.5-0.3,0.8c-0.1,0.1-0.1,0.2-0.2,0.2c-0.1,0.1-0.2,0.3-0.3,0.4
	c-0.3,0.3-0.6,0.7-0.8,1c-1.6,2.3-2.8,4.8-3.4,7.5c-0.7,2.5-1,5.1-1,7.7c0.2,3.6,1.2,7.1,3.1,10.1c8.1,15,7.6,33.1-1.1,47.7
	l-21.3,35.5c-0.6,0.9-0.6,2.1,0,3.1c0.6,1,1.6,1.5,2.7,1.5h46.7c1.2,0,2.2-0.7,2.7-1.7l8.2-16.4c1.4-2.7,2.6-5.5,3.5-8.4
	c1.1-3.4,2.5-6.7,4.1-9.9l0.9-1.8c0.2-0.4,0.5-0.7,0.8-1l15.9-12.9l-7-11.3C430.6,163.6,430.4,163.6,430.1,163.6z M413.1,186.6
	c-0.7,0.4-1.6,0.4-2.3,0.2c-0.8-0.3-1.4-0.8-1.8-1.5c-5.4-10.7-19.2-13.7-19.3-13.7c-1.6-0.4-2.6-2-2.3-3.6c0.3-1.6,1.9-2.7,3.5-2.4
	c0.7,0.1,16.9,3.5,23.6,16.9c0.4,0.7,0.4,1.6,0.2,2.3C414.4,185.6,413.8,186.3,413.1,186.6z"/>
<path style="fill:#FFFFFF;" d="M400,121.9L400,121.9L400,121.9L400,121.9z"/>
<path style="fill:#FFFFFF;" d="M362.3,116.6c1.7,0.1,3.5,0.3,5.4,0.6c0.1-0.3,0.2-0.6,0.4-0.9c0.2-0.4,0.3-0.8,0.5-1.2
	s0.4-0.8,0.6-1.2c0.2-0.3,0.3-0.7,0.5-1c0.1-0.1,0.1-0.2,0.1-0.3l-0.2-0.2c-3.3-2.3-6.4-4.5-9.2-6.6
	C361.2,110.1,361.9,114.1,362.3,116.6z"/>
<path style="fill:#113559;" d="M405.1,410.7c1.5,1.5,3.2,3.3,4.9,5.2c0.1-0.1,0.2-0.2,0.3-0.2c2.7-1.3,7.5-9.6,11-15.6
	c2.5-4.7,5.5-9.3,8.8-13.5V385c0-1-0.5-1.8-1.4-2.3l-5.6-2.8c-1-0.5-2.2-0.3-2.9,0.5l0,0c-5.7,8-14.6,22.7-14.6,28.7
	C405.6,409.7,405.4,410.2,405.1,410.7z"/>
<path style="fill:#113559;" d="M400,395c0.9,3,1,6.2,0.3,9.2c2.8-9.6,11.8-22.9,14.4-26.6v-1.5c0-1.3-0.6-2.5-1.7-3.2l-3.1-2
	C411.5,378.1,410.5,387.1,400,395z"/>
<path style="fill:#113559;" d="M481.5,418.3c-6.9-1.1-13.9-1-20.7,0.3l-0.2,0.7c-0.1,0.1-0.1,0.2-0.2,0.4c0,0.1-0.1,0.2-0.1,0.3
	c0,0-0.1,0.1-0.1,0.1c-0.2,0.3-0.4,0.5-0.7,0.7c-5.1,4.1-9.8,8.6-14,13.5c-0.3,0.3-0.6,0.7-0.9,1c0,0,0.1,0,0.1,0.1
	c1.3,0.4,2.6,0.9,3.9,1.5l0.5,0.2c1.3,0.6,2.7,1.2,4.1,1.9l0.4,0.2c9,4.9,17.7,10.3,26.1,16.2c2.9,2.1,5.9,4,9,5.8h5.9
	c1.4-10,8-30.9,10.9-40C497.5,420.9,489.4,419.9,481.5,418.3z"/>
<path style="fill:#113559;" d="M368.5,387.7l0.6,0.4c0.4,0.3,0.8,0.6,1.2,0.8c0.7,0.5,1.5,1,2.2,1.6l0.2,0.1l0.1-0.2
	c-0.3-0.4-0.6-0.9-0.9-1.3c-5.6-8.1-11.6-17-16.5-25.2c-4-1.8-7.7-3.5-10.5-4.8c0.6,3.1,1.3,6.2,2.3,9.2c0.6,1.8,3.6,5.3,9.8,10.5
	C360.6,381.9,364.7,385,368.5,387.7z"/>
<path style="fill:#113559;" d="M414.2,420.3c2.5,2.7,5,5.5,7.5,8.4c2-7,7.7-16.9,17.9-27.3l0.3-1c1-2.9-0.4-6.1-3.1-7.5l-3-1.5
	c-2.7,3.7-5.1,7.6-7.3,11.6C421.4,412,417.8,417.8,414.2,420.3z"/>
<path style="fill:#113559;" d="M426.8,434.7c1.4,1.7,2.7,3.3,3.9,4.9c1.7-0.9,3.3-2,4.6-3.4c0.1-0.1,0.2-0.2,0.3-0.3
	c0.4-0.4,0.8-0.8,1.2-1.2l0.2-0.2c0.5-0.5,1-1,1.5-1.6l0.3-0.4c0.7-0.8,1.4-1.5,2.2-2.4c1-1.1,2-2.2,3-3.3c0.3-0.3,0.6-0.7,0.9-1
	c0.8-0.8,1.5-1.6,2.3-2.4l0.5-0.5c0.3-0.3,0.6-0.6,0.9-0.9c0.7-0.7,1.4-1.3,2-2c0.2-0.2,0.5-0.4,0.7-0.7c0.4-0.3,0.7-0.6,1.1-0.9
	c0.4-0.4,0.8-0.7,1.3-1.1l-2.4-4.9c-1.3-2.5-3.5-4.5-6.2-5.4l-1.9-0.6c-10.5,10.9-16.2,22-16.2,27.1
	C427,434,426.9,434.4,426.8,434.7z"/>
<path style="fill:#113559;" d="M361.5,362.2c0.6,1,1.2,2,1.8,3c0.5,0.8,0.9,1.5,1.4,2.3c0.5,0.8,1,1.6,1.5,2.4c1,1.5,2,3.1,3,4.5
	l1.4,2.1c0.6,0.9,1.2,1.8,1.8,2.7c1,1.4,2,2.9,3,4.4c0.2,0.2,0.3,0.5,0.5,0.7c3.3-4.7,7.5-8.6,12.5-11.4l0.1,0l0.4-0.2
	c0.4-0.2,0.9-0.5,1.3-0.8c0.1-0.1,0.3-0.2,0.4-0.3c0.3-0.3,0.6-0.5,0.9-0.8c0.2-0.2,0.4-0.4,0.6-0.6c0.3-0.3,0.5-0.6,0.8-0.8
	c0.3-0.3,0.6-0.6,0.9-1l0.2-0.3c-1.5-9.3-2.7-21.5-3.3-27.9c-19.4,8-31.7,6.8-38.6,4.5c2.4,5.5,5.3,10.9,8.5,16
	C360.8,361.2,361.1,361.7,361.5,362.2z"/>
<path style="fill:#113559;" d="M476.4,460.6c-5.2-3.5-12.1-8.2-19.1-12.3l-0.1,0c-0.8-0.5-1.6-0.9-2.4-1.4l-0.4-0.2
	c-0.7-0.4-1.4-0.8-2.1-1.1l-0.6-0.3c-0.6-0.3-1.2-0.6-1.8-0.9l-0.8-0.4c-0.5-0.3-1.1-0.5-1.6-0.8c-0.3-0.1-0.6-0.3-0.9-0.4
	c-0.5-0.2-1-0.4-1.4-0.6c-0.3-0.1-0.6-0.3-0.9-0.4c-0.4-0.2-0.9-0.3-1.3-0.5c-0.3-0.1-0.6-0.2-0.9-0.3c-0.4-0.1-0.8-0.2-1.2-0.4
	c-0.3-0.1-0.6-0.2-0.9-0.3c-0.1,0-0.2,0-0.3-0.1c-1.2,1.2-2.4,2.3-3.8,3.3l26.1,41.8c7.8-1.9,22.8-6.5,28.4-12l-4.6-6.6
	C482.6,464.8,479.4,462.8,476.4,460.6z"/>
<path style="fill:#113559;" d="M430.1,447.1c-1,0-1.9-0.5-2.5-1.3c-9.5-13.6-33.1-37.3-33.3-37.5c-0.9-0.9-1.2-2.4-0.6-3.5
	c1.3-3,1.3-6.5,0-9.5c-0.7-1.4-0.2-3.1,1-3.9c11.9-7.9,10.9-16.6,7.6-24.5c-1.3,2.2-2.9,4.2-4.5,6.2c-0.2,0.2-0.4,0.4-0.6,0.6
	c-0.4,0.4-0.8,0.8-1.1,1.2c-0.3,0.3-0.6,0.6-0.8,0.8c-0.3,0.3-0.7,0.6-1,0.8c-0.3,0.2-0.6,0.5-0.8,0.7c-0.5,0.4-1.1,0.7-1.7,1
	c-0.1,0-0.1,0.1-0.1,0.1c-4.4,2.4-8.2,5.9-10.9,10.1l0,0.1c-0.3,0.4-0.6,0.9-0.8,1.4l0,0.1c-0.3,0.5-0.5,1-0.7,1.5l0,0.1
	c-0.2,0.5-0.4,1-0.6,1.5s-0.4,1.1-0.5,1.7c-0.1,0.3-0.2,0.5-0.3,0.8c-0.1,0.1-0.1,0.2-0.2,0.2c-0.1,0.1-0.2,0.3-0.3,0.4
	c-0.3,0.3-0.6,0.7-0.8,1c-1.6,2.3-2.8,4.8-3.4,7.5c-0.7,2.5-1,5.1-1,7.7c0.2,3.6,1.2,7.1,3.1,10.1c8.1,15,7.6,33.1-1.1,47.7
	l-21.3,35.5c-0.6,0.9-0.6,2.1,0,3.1c0.6,1,1.6,1.5,2.7,1.5h46.7c1.2,0,2.2-0.7,2.7-1.7l8.2-16.4c1.4-2.7,2.6-5.5,3.5-8.4
	c1.1-3.4,2.5-6.7,4.1-9.9l0.9-1.8c0.2-0.4,0.5-0.7,0.8-1l15.9-12.9l-7-11.3C430.6,447,430.4,447.1,430.1,447.1z M413.1,470.1
	c-0.7,0.4-1.6,0.4-2.3,0.2c-0.8-0.3-1.4-0.8-1.8-1.5c-5.4-10.7-19.2-13.7-19.3-13.7c-1.6-0.4-2.6-2-2.3-3.6c0.3-1.6,1.9-2.7,3.5-2.4
	c0.7,0.1,16.9,3.5,23.6,16.9c0.4,0.7,0.4,1.6,0.2,2.3C414.4,469.1,413.8,469.7,413.1,470.1z"/>
<path style="fill:#113559;" d="M400,405.4L400,405.4L400,405.4L400,405.4z"/>
<path style="fill:#113559;" d="M362.3,400c1.7,0.1,3.5,0.3,5.4,0.6c0.1-0.3,0.2-0.6,0.4-0.9c0.2-0.4,0.3-0.8,0.5-1.2
	s0.4-0.8,0.6-1.2c0.2-0.3,0.3-0.7,0.5-1c0.1-0.1,0.1-0.2,0.1-0.3l-0.2-0.2c-3.3-2.3-6.4-4.5-9.2-6.6
	C361.2,393.6,361.9,397.6,362.3,400z"/>
</svg>
